<?xml version="1.0" encoding="utf-8"?>
<!-- Generator: Adobe Illustrator 25.4.1, SVG Export Plug-In . SVG Version: 6.00 Build 0)  -->
<svg version="1.1" id="Layer_1" xmlns="http://www.w3.org/2000/svg" xmlns:xlink="http://www.w3.org/1999/xlink" x="0px" y="0px"
	 viewBox="0 0 40 40" style="enable-background:new 0 0 40 40;" xml:space="preserve">
<style type="text/css">
	.st0{fill:#707070;}
	.st1{fill:#FFFFFF;}
</style>
<g id="Group_14" transform="translate(0 0)">
	<ellipse id="Ellipse_1" class="st0" cx="20" cy="20" rx="20" ry="20"/>
	<g id="Group_3" transform="translate(11.113 7.873)">
		<g id="Group_1" transform="translate(3.469)">
			<path id="Path_1" class="st1" d="M11.2,2.6c0,3.2-2.6,5.8-5.8,5.8s-5.7-2.6-5.7-5.8S2.2-3,5.4-3S11.2-0.4,11.2,2.6L11.2,2.6z"/>
		</g>
		<g id="Group_2" transform="translate(0 9.499)">
			<path id="Path_2" class="st1" d="M8.9,0.9L8.9,0.9C3,0.9-1.6,5.5-1.6,11.4l0,0c0,1.5,1.2,2.7,2.7,2.7h15.5c1.5,0,2.7-1.2,2.7-2.7
				l0,0C19.4,5.5,14.8,0.9,8.9,0.9L8.9,0.9z"/>
		</g>
	</g>
</g>
</svg>
