<?xml version="1.0" standalone="no"?>
<!DOCTYPE svg PUBLIC "-//W3C//DTD SVG 20010904//EN"
 "http://www.w3.org/TR/2001/REC-SVG-20010904/DTD/svg10.dtd">
<svg version="1.0" xmlns="http://www.w3.org/2000/svg"
 width="198.000000pt" height="198.000000pt" viewBox="0 0 198.000000 198.000000"
 preserveAspectRatio="xMidYMid meet">
<metadata>
Created by potrace 1.14, written by Peter Selinger 2001-2017
</metadata>
<g transform="translate(0.000000,198.000000) scale(0.100000,-0.100000)"
fill="#000000" stroke="none">
<path d="M0 985 l0 -985 985 0 c542 0 985 3 985 8 1 4 1 446 2 982 l1 975
-987 3 -986 2 0 -985z m1928 0 l2 -943 -943 2 -942 1 -1 941 -1 941 942 0 942
1 1 -943z"/>
<path d="M1327 1435 c-1 -1 -49 -5 -106 -8 -57 -3 -105 -8 -107 -10 -4 -4 -6
-348 -4 -734 l0 -133 48 1 48 2 -1 168 0 168 110 0 c164 0 226 18 297 87 50
49 72 116 66 208 -10 156 -103 235 -291 249 -31 2 -58 3 -60 2z m138 -101 c78
-29 117 -84 117 -168 1 -148 -110 -217 -317 -197 l-60 6 0 178 c0 109 4 181
10 185 15 10 113 18 165 14 25 -2 63 -10 85 -18z"/>
<path d="M320 1420 l-35 -5 1 -315 c1 -299 2 -318 23 -372 30 -79 83 -133 156
-163 50 -20 74 -24 150 -22 145 4 230 58 277 176 21 53 22 72 26 381 l3 325
-43 -2 c-24 -1 -45 -2 -48 -2 -3 -1 -5 -124 -5 -273 1 -306 -5 -373 -37 -430
-35 -62 -96 -93 -184 -92 -58 0 -79 5 -116 27 -95 55 -105 97 -106 447 0 151
-1 285 -1 296 -1 26 -15 32 -61 24z"/>
</g>
</svg>
