<?xml version="1.0" encoding="utf-8"?>
<!-- Generator: Adobe Illustrator 25.4.1, SVG Export Plug-In . SVG Version: 6.00 Build 0)  -->
<svg version="1.1" id="Layer_1" xmlns="http://www.w3.org/2000/svg" xmlns:xlink="http://www.w3.org/1999/xlink" x="0px" y="0px"
	 viewBox="0 0 40 40" style="enable-background:new 0 0 40 40;" xml:space="preserve">
<style type="text/css">
	.st0{fill-rule:evenodd;clip-rule:evenodd;fill:#707070;stroke:#707070;}
</style>
<g id="Group_15" transform="translate(0.5 0.5)">
	<path id="Path_3" class="st0" d="M1.3,2.9L1.3,2.9C0.7,2.9,0.1,3.4,0.1,4c0,0.7,0.5,1.2,1.2,1.2c0,0,0,0,0.1,0h6.8
		C8.5,5.2,9,5.6,9,5.7l3.2,11.4l2.3,8.1c0.4,1.3,1.6,2.2,3,2.3h17.4c1.4,0,2.6-1.1,2.8-2.5l0.9-11.6H38c-0.7,0-1.2-0.2-1.7-0.2
		l-0.9,11.6c0,0.2-0.4,0.3-0.5,0.3H17.5c-0.4,0-0.7-0.2-0.9-0.5L13.8,14h23.3v-2.3H13.8c-0.2,0-0.5,0-0.7,0.2l-1.9-6.7
		c-0.4-1.3-1.6-2.2-3-2.3H1.3z M31.5,28.9L31.5,28.9c1.9,0,3.4,1.5,3.5,3.3c0.1,1.9-1.4,3.6-3.3,3.7c-1.9,0.1-3.6-1.4-3.7-3.3
		c0-0.1,0-0.2,0-0.3C28.1,30.4,29.6,28.9,31.5,28.9z M31.5,33.6L31.5,33.6c0.7-0.1,1.3-0.7,1.2-1.4c0-0.7-0.6-1.2-1.2-1.2
		c-0.7,0-1.2,0.6-1.2,1.2C30.3,33,30.8,33.6,31.5,33.6z M20.4,28.9L20.4,28.9c1.9,0,3.4,1.5,3.5,3.3c0.1,2-1.5,3.6-3.4,3.7
		c0,0-0.1,0-0.1,0c-1.9,0-3.5-1.5-3.5-3.4c0-0.1,0-0.2,0-0.3C17,30.4,18.5,28.9,20.4,28.9C20.4,28.9,20.4,28.9,20.4,28.9z
		 M20.4,33.6L20.4,33.6c0.7,0,1.3-0.6,1.3-1.4c0-0.7-0.6-1.2-1.3-1.3c-0.7,0-1.3,0.5-1.4,1.2C19.1,33,19.7,33.6,20.4,33.6z"/>
	<path id="Path_4" class="st0" d="M36.3,11.7h2.5l-0.6,5.1H36L36.3,11.7z"/>
</g>
</svg>
