<svg xmlns="http://www.w3.org/2000/svg" width="28.75" height="20.125" viewBox="0 0 28.75 20.125">
  <path id="Path_10" data-name="Path 10" d="M35.967,20.018a6.309,6.309,0,0,0-6.309-6.309H13.526a6.309,6.309,0,0,0-6.309,6.309v7.508a6.309,6.309,0,0,0,6.309,6.309H29.658a6.309,6.309,0,0,0,6.309-6.309ZM26.48,24.334l-7.235,3.579c-.283.154-1.247-.052-1.247-.374V20.192c0-.327.972-.532,1.255-.37l6.925,3.767C26.469,23.755,26.774,24.176,26.48,24.334Z" transform="translate(-7.217 -13.709)" fill="#707070"/>
</svg>
