<svg xmlns="http://www.w3.org/2000/svg" width="74.46" height="69.714" viewBox="0 0 74.46 69.714">
  <path id="Path_12" data-name="Path 12" d="M384.545,212.984a41.349,41.349,0,0,0-5.12-1.086,1.244,1.244,0,0,0-.171-.011h-7.761l-2.573-4.081h3.042a1.256,1.256,0,0,0,1.256-1.256v-3.737a1.256,1.256,0,0,0-1.256-1.256h-3.738a1.258,1.258,0,0,0-.459.087,8.768,8.768,0,0,0-2.043,1.089l-4.038-6.4h2.777a1.256,1.256,0,0,0,1.256-1.256v-3.58a1.256,1.256,0,0,0-1.256-1.256H360.88a1.245,1.245,0,0,0-.459.087,8.631,8.631,0,0,0-1.895.995l-3.437-5.454a1.26,1.26,0,0,0-.6-.5l-6.841-2.745a1.257,1.257,0,0,0-1.673,1.522l8.195,27.742H331.427a1.277,1.277,0,0,0-.25.024c-.075.016-1.454.3-3.167.791l-4.947-9.647a1.256,1.256,0,0,0-1.118-.683H317.2a1.256,1.256,0,0,0-1.221,1.551l2.966,12.289h-1.645a1.257,1.257,0,0,0,0,2.513h1.614l-2.935,12.159a1.256,1.256,0,0,0,1.221,1.551h4.75a1.257,1.257,0,0,0,1.118-.683l4.861-9.479c1.781.427,3.237.65,3.314.662a1.267,1.267,0,0,0,.189.014h22.729l-8.177,27.684a1.255,1.255,0,0,0,1.673,1.521l6.841-2.744a1.262,1.262,0,0,0,.6-.5l3.437-5.454a8.635,8.635,0,0,0,1.895,1,1.261,1.261,0,0,0,.459.087h3.582a1.257,1.257,0,0,0,1.256-1.257v-3.58a1.256,1.256,0,0,0-1.256-1.256h-2.777l4.038-6.4a8.8,8.8,0,0,0,2.043,1.09,1.257,1.257,0,0,0,.459.086h3.738a1.256,1.256,0,0,0,1.256-1.256v-3.736a1.257,1.257,0,0,0-1.256-1.257h-3.042l2.536-4.022h7.8a1.245,1.245,0,0,0,.187-.014,44.49,44.49,0,0,0,5.106-1.125c3.992-1.156,5.851-2.539,5.851-4.353C390.4,214.953,387.058,213.7,384.545,212.984Zm-.971,6.492a43.2,43.2,0,0,1-4.418.961H331.522c-.858-.133-1.67-.286-2.423-.454l.644-1.257h1.446a1.257,1.257,0,0,0,0-2.513H329.81l-.63-1.228c1.135-.312,2.059-.517,2.377-.585h47.607a39.381,39.381,0,0,1,4.687,1c3.269.938,4,1.824,4.033,2.044C387.837,217.541,387.3,218.434,383.574,219.476ZM363.2,240.964v1.067H361.13a8.033,8.033,0,0,1-.953-.493,8.249,8.249,0,0,1,.985-.574Zm-9.6,5.591,13.736-23.6h1.145Zm11.659-23.6L350.513,248.3l-1.39.557,7.653-25.907Zm-39.811-1.365-4.275,8.338h-2.387l2.558-10.6.145-.6h5.426l-.307.6-.579,1.128Zm-4.275-16.7,4.412,8.6.577,1.127.578,1.127.241.469h-5.461l-.08-.329-2.654-11Zm32-17.337,15.343,24.339H367.3l-14.175-24.36Zm10.025,5.2v1.068h-2.043a8.246,8.246,0,0,1-.985-.575,8.033,8.033,0,0,1,.953-.493Zm-12.787-6.308,14.807,25.447h-8.431l-7.67-25.966Zm20.289,17.63v1.224h-2.2a8.332,8.332,0,0,1-1.114-.658,8.249,8.249,0,0,1,1.084-.566Zm-2.2,25.415h2.2v1.224h-2.232a8.236,8.236,0,0,1-1.083-.566A8.416,8.416,0,0,1,368.506,229.486Z" transform="translate(-315.939 -182.533)" fill="#acacac"/>
</svg>
