<svg id="Layer_1" data-name="Layer 1" xmlns="http://www.w3.org/2000/svg" viewBox="0 0 36.01 49.45"><defs><style>.cls-1{fill:#707071;}</style></defs><path class="cls-1" d="M43,5.49a2.33,2.33,0,0,0-2.31-2.08H32.22v-2A1.07,1.07,0,0,0,31.15.31H18.92a1.07,1.07,0,0,0-1.07,1.08v2H9.36a2.31,2.31,0,0,0-2.3,2.08H7V9.81H43V5.49Z" transform="translate(-7.03 -0.31)"/><path class="cls-1" d="M7,11.42V49.76H43V11.42ZM17.21,44a1.84,1.84,0,0,1-1.85,1.84h-2A1.84,1.84,0,0,1,11.53,44V17.18a1.84,1.84,0,0,1,1.85-1.84h2a1.84,1.84,0,0,1,1.85,1.84Zm11,0a1.84,1.84,0,0,1-1.85,1.84h-2A1.84,1.84,0,0,1,22.48,44V17.18a1.84,1.84,0,0,1,1.84-1.84h2a1.84,1.84,0,0,1,1.85,1.84ZM39.1,44a1.84,1.84,0,0,1-1.84,1.84h-2A1.84,1.84,0,0,1,33.42,44V17.18a1.84,1.84,0,0,1,1.85-1.84h2a1.84,1.84,0,0,1,1.84,1.84Z" transform="translate(-7.03 -0.31)"/></svg>