<svg xmlns="http://www.w3.org/2000/svg" width="55.456" height="65.523" viewBox="0 0 55.456 65.523">
  <g id="Group_21" data-name="Group 21" transform="translate(0 0)">
    <path id="Path_17" data-name="Path 17" d="M237.53,486.238a3.4,3.4,0,0,0,3.442-5.772l-2.637-2.224a3.405,3.405,0,0,0-5.109,4.367l-.71.842a27.325,27.325,0,0,0-13.229-5.642v-1.943a4.187,4.187,0,0,0,2.435-3.8v-.952a4.187,4.187,0,0,0-4.182-4.182h-3.951a4.187,4.187,0,0,0-4.181,4.182v.952a4.185,4.185,0,0,0,2.367,3.767v1.974a27.354,27.354,0,0,0-14.028,6.3l-1.264-1.5a3.405,3.405,0,0,0-5.109-4.367l-2.637,2.224a3.4,3.4,0,0,0,3.442,5.772l1.656,1.965a27.454,27.454,0,1,0,42.729-.82Zm-22,43.706a24.928,24.928,0,0,1-20.022-39.794c.188-.253.381-.5.579-.746a25.037,25.037,0,0,1,2.606-2.781q.331-.3.672-.595a24.855,24.855,0,0,1,12.409-5.682c.3-.045.6-.083.9-.118s.6-.064.9-.088q.971-.075,1.962-.077t1.962.077c.3.024.6.053.9.088s.6.073.9.118a24.837,24.837,0,0,1,11.609,5.026c.235.185.466.375.7.568s.455.388.676.59q.758.687,1.458,1.435c.206.22.41.444.607.672s.395.462.585.7a24.925,24.925,0,0,1-19.387,40.609Zm-24.6-45.262a1.612,1.612,0,0,1-1.04-2.844l2.638-2.224a1.611,1.611,0,0,1,2.427,2.049,1.628,1.628,0,0,1-.349.414l-2.637,2.224a1.622,1.622,0,0,1-1.038.38Zm4.293-.778,1.191,1.412q-.736.716-1.418,1.483l-1.332-1.58ZM211.2,471.116a2.39,2.39,0,0,1,2.387-2.387h3.951a2.39,2.39,0,0,1,2.388,2.387v.952a2.391,2.391,0,0,1-2.388,2.387h-3.951a2.393,2.393,0,0,1-2.387-2.387Zm2.367,5.133h3.923v1.372c-.648-.046-1.3-.071-1.962-.071s-1.313.025-1.962.071Zm20.318,8.36.595-.7,1.559,1.315-.686.813Q234.648,485.293,233.887,484.609Zm6.121-.5a1.614,1.614,0,0,1-2.271.193l-2.638-2.224a1.612,1.612,0,0,1,2.078-2.464l2.637,2.224A1.613,1.613,0,0,1,240.008,484.109Z" transform="translate(-187.528 -466.934)" fill="#acacac"/>
    <path id="Path_18" data-name="Path 18" d="M219.9,488.173a21.528,21.528,0,1,0,18.939,21.372A21.684,21.684,0,0,0,219.9,488.173Zm-2.588,40.386a19.015,19.015,0,1,1,19.015-19.015A19.036,19.036,0,0,1,217.309,528.559Z" transform="translate(-189.306 -471.475)" fill="#acacac"/>
    <path id="Path_19" data-name="Path 19" d="M222.873,498.276a1.257,1.257,0,0,0,1.256-1.257v-4a1.256,1.256,0,1,0-2.512,0v4A1.256,1.256,0,0,0,222.873,498.276Z" transform="translate(-194.87 -472.281)" fill="#acacac"/>
    <path id="Path_20" data-name="Path 20" d="M222.873,530.845a1.256,1.256,0,0,0-1.256,1.256v4a1.256,1.256,0,0,0,2.512,0v-4A1.256,1.256,0,0,0,222.873,530.845Z" transform="translate(-194.87 -480.699)" fill="#acacac"/>
    <path id="Path_21" data-name="Path 21" d="M212.915,495.348a1.256,1.256,0,1,0-2.176,1.257l2,3.466a1.257,1.257,0,1,0,2.177-1.256Z" transform="translate(-192.491 -472.918)" fill="#acacac"/>
    <path id="Path_22" data-name="Path 22" d="M232.457,529.2a1.257,1.257,0,0,0-2.177,1.256l2,3.466a1.256,1.256,0,1,0,2.176-1.257Z" transform="translate(-196.7 -480.209)" fill="#acacac"/>
    <path id="Path_23" data-name="Path 23" d="M207.834,504.976l-3.466-2a1.257,1.257,0,1,0-1.257,2.177l3.466,2a1.256,1.256,0,0,0,1.256-2.177Z" transform="translate(-190.749 -474.66)" fill="#acacac"/>
    <path id="Path_24" data-name="Path 24" d="M241.682,524.518l-3.466-2a1.257,1.257,0,1,0-1.256,2.177l3.466,2a1.256,1.256,0,0,0,1.256-2.176Z" transform="translate(-198.039 -478.869)" fill="#acacac"/>
    <path id="Path_25" data-name="Path 25" d="M206.039,515.109a1.256,1.256,0,0,0-1.256-1.256h-4a1.256,1.256,0,1,0,0,2.512h4A1.256,1.256,0,0,0,206.039,515.109Z" transform="translate(-190.112 -477.039)" fill="#acacac"/>
    <path id="Path_26" data-name="Path 26" d="M243.867,513.853h-4a1.256,1.256,0,1,0,0,2.512h4a1.256,1.256,0,1,0,0-2.512Z" transform="translate(-198.53 -477.039)" fill="#acacac"/>
    <path id="Path_27" data-name="Path 27" d="M206.578,522.517l-3.466,2a1.256,1.256,0,1,0,1.257,2.176l3.466-2a1.257,1.257,0,0,0-1.256-2.177Z" transform="translate(-190.749 -478.869)" fill="#acacac"/>
    <path id="Path_28" data-name="Path 28" d="M236.5,506.692a1.256,1.256,0,0,0,1.717.46l3.466-2a1.256,1.256,0,0,0-1.256-2.177l-3.466,2A1.257,1.257,0,0,0,236.5,506.692Z" transform="translate(-198.039 -474.66)" fill="#acacac"/>
    <path id="Path_29" data-name="Path 29" d="M214.456,528.737a1.257,1.257,0,0,0-1.717.46l-2,3.466a1.256,1.256,0,1,0,2.176,1.257l2-3.466A1.256,1.256,0,0,0,214.456,528.737Z" transform="translate(-192.491 -480.209)" fill="#acacac"/>
    <path id="Path_30" data-name="Path 30" d="M230.741,500.531a1.258,1.258,0,0,0,1.717-.461l2-3.466a1.256,1.256,0,1,0-2.176-1.257l-2,3.466A1.257,1.257,0,0,0,230.741,500.531Z" transform="translate(-196.7 -472.918)" fill="#acacac"/>
    <path id="Path_31" data-name="Path 31" d="M234,501.322a.9.9,0,0,0-1.151-.143l-10.933,7.163a4.011,4.011,0,1,0,4.192,4.341l7.94-10.2A.9.9,0,0,0,234,501.322Zm-11.888,12.525a1.5,1.5,0,1,1,1.5-1.5A1.5,1.5,0,0,1,222.117,513.847Zm3.5-3.452a4.04,4.04,0,0,0-1.362-1.437l5.064-3.318Z" transform="translate(-194.114 -474.278)" fill="#acacac"/>
  </g>
</svg>
