<svg id="Group_16" data-name="Group 16" xmlns="http://www.w3.org/2000/svg" width="28.295" height="28.295" viewBox="0 0 28.295 28.295">
  <g id="Group_4" data-name="Group 4" transform="translate(0 0)">
    <path id="Path_6" data-name="Path 6" d="M34.051,14.707a1.659,1.659,0,1,0,1.659,1.659A1.659,1.659,0,0,0,34.051,14.707Z" transform="translate(-12.413 -9.655)" fill="#707070"/>
    <path id="Path_7" data-name="Path 7" d="M23.5,17.367a6.968,6.968,0,1,0,6.968,6.969A6.976,6.976,0,0,0,23.5,17.367Zm0,11.432a4.464,4.464,0,1,1,4.463-4.463A4.468,4.468,0,0,1,23.5,28.8Z" transform="translate(-9.236 -10.188)" fill="#707070"/>
    <path id="Path_8" data-name="Path 8" d="M27.2,36.685h-11.3a8.509,8.509,0,0,1-8.5-8.5v-11.3a8.508,8.508,0,0,1,8.5-8.5H27.2a8.509,8.509,0,0,1,8.5,8.5v11.3A8.509,8.509,0,0,1,27.2,36.685Zm-11.3-25.633a5.843,5.843,0,0,0-5.837,5.836v11.3a5.843,5.843,0,0,0,5.837,5.837H27.2a5.843,5.843,0,0,0,5.837-5.837v-11.3A5.843,5.843,0,0,0,27.2,11.052Z" transform="translate(-7.409 -8.39)" fill="#707070"/>
  </g>
</svg>
