<svg id="Group_20" data-name="Group 20" xmlns="http://www.w3.org/2000/svg" width="78.814" height="54.097" viewBox="0 0 78.814 54.097">
  <path id="Path_11" data-name="Path 11" d="M195.6,240.346a8.272,8.272,0,1,0,8.272,8.272A8.281,8.281,0,0,0,195.6,240.346Zm0,14.031a5.76,5.76,0,1,1,5.759-5.76A5.766,5.766,0,0,1,195.6,254.377Z" transform="translate(-175.626 -202.792)" fill="#acacac"/>
  <path id="Path_12" data-name="Path 12" d="M196.923,246.484a3.455,3.455,0,1,0,3.455,3.456A3.456,3.456,0,0,0,196.923,246.484Z" transform="translate(-176.948 -204.114)" fill="#acacac"/>
  <path id="Path_13" data-name="Path 13" d="M249.5,240.346a8.272,8.272,0,1,0,8.271,8.272A8.281,8.281,0,0,0,249.5,240.346Zm0,14.031a5.76,5.76,0,1,1,5.759-5.76A5.766,5.766,0,0,1,249.5,254.377Z" transform="translate(-187.234 -202.792)" fill="#acacac"/>
  <path id="Path_14" data-name="Path 14" d="M250.822,246.484a3.455,3.455,0,1,0,3.455,3.456A3.456,3.456,0,0,0,250.822,246.484Z" transform="translate(-188.556 -204.114)" fill="#acacac"/>
  <path id="Path_15" data-name="Path 15" d="M250.456,213.528l-6.936-2.907c-.883-1.577-4.244-7.4-6.884-9.7a1.259,1.259,0,0,0-.825-.308H225.525v-6.876a1.257,1.257,0,0,0-1.256-1.257h-50.6a1.257,1.257,0,0,0-1.257,1.257v30.686a1.256,1.256,0,0,0,1.257,1.256h2.182v9.17a1.257,1.257,0,0,0,1.257,1.256h5.54a1.256,1.256,0,0,0,1.183-.835,9.078,9.078,0,0,1,17.113,0,1.258,1.258,0,0,0,1.184.835h22.81a1.256,1.256,0,0,0,1.183-.835,9.079,9.079,0,0,1,17.113,0,1.256,1.256,0,0,0,1.183.835h5.553a1.256,1.256,0,0,0,1.256-1.256V214.687A1.256,1.256,0,0,0,250.456,213.528Zm-24.913-10.4h9.778c2.637,2.568,6.171,9.017,6.208,9.084a1.256,1.256,0,0,0,.617.557l6.567,2.752v7.788H225.544Zm-50.618-4.461H178.1V219.6h-3.175Zm4.791,0h3.378V219.6h-3.378Zm4.993,0h3.377V219.6H184.71Zm4.993,0h3.378V219.6H189.7Zm4.993,0h3.378V219.6H194.7Zm4.993,0h3.377V219.6H199.69Zm4.993,0h3.378V219.6h-3.378Zm4.993,0h3.378V219.6h-3.378Zm4.993,0h3.378V219.6h-3.378Zm4.993,0h3.351V219.6h-3.351ZM174.926,195h48.086v1.876H174.926Zm0,28.173v-1.776h48.086v1.776ZM248.714,233.6h-3.446a11.589,11.589,0,0,0-21.179,0h-21.11a11.59,11.59,0,0,0-21.179,0h-3.434v-7.773h70.349Z" transform="translate(-172.413 -192.484)" fill="#acacac"/>
  <path id="Path_16" data-name="Path 16" d="M248.7,208.812h-6.619v7.847H254.3l-.067-.111A54.77,54.77,0,0,0,248.7,208.812Z" transform="translate(-187.417 -196.001)" fill="#acacac"/>
  <rect id="Rectangle_25" data-name="Rectangle 25" width="3.979" height="1.447" transform="translate(56.439 23.642)" fill="#acacac"/>
</svg>
