<?xml version="1.0" encoding="utf-8"?>
<!-- Generator: Adobe Illustrator 25.4.1, SVG Export Plug-In . SVG Version: 6.00 Build 0)  -->
<svg version="1.1" id="Layer_1" xmlns="http://www.w3.org/2000/svg" xmlns:xlink="http://www.w3.org/1999/xlink" x="0px" y="0px"
	 viewBox="0 0 500 500" style="enable-background:new 0 0 500 500;" xml:space="preserve">
<style type="text/css">
	.st0{enable-background:new    ;}
	.st1{stroke:#000000;stroke-miterlimit:10;}
	.st2{fill:none;stroke:#000000;stroke-miterlimit:10;}
</style>
<g class="st0">
	<path class="st1" d="M91.1,214.8c17.1,0,25.7-10.3,25.7-30.9v-61.5h10.7v60.9c0,13.4-3.1,23.5-9.4,30.5
		c-6.3,6.9-15.3,10.4-27.2,10.4c-11.8,0-20.9-3.5-27.2-10.4c-6.3-6.9-9.5-17.1-9.5-30.5v-60.9h11.1v61.5
		C65.4,204.5,74,214.8,91.1,214.8z"/>
	<path class="st1" d="M149.6,123.3c9.5-1.5,18.8-2.2,27.9-2.2c12.5,0,21.9,2.6,28.4,7.9c6.5,5.3,9.7,12.8,9.7,22.6
		c0,10.6-3.3,18.7-9.8,24.2c-6.5,5.5-16,8.2-28.3,8.2c-6,0-11.7-0.3-16.9-0.8v39.6h-11V123.3z M160.6,174.1
		c5.3,0.7,10.7,1.1,16.1,1.1c9.1,0,16-2,20.8-5.9c4.8-3.9,7.2-9.6,7.2-16.9c0-7.3-2.4-12.9-7.1-16.7c-4.7-3.8-11.7-5.7-21-5.7
		c-5,0-10.4,0.5-16.1,1.4V174.1z"/>
</g>
<g class="st0">
	<path class="st1" d="M120.9,277.3v2.6H89v90.5h-2.5v-90.5H54.6v-2.6H120.9z"/>
	<path class="st1" d="M172.7,324v0.3c2.4,0.9,4.5,2.7,6.3,5.2c1.8,2.6,4.3,7.3,7.3,14.2l12,26.8h-2.8L184,344.7
		c-1.9-4.2-3.4-7.3-4.5-9.3c-1.1-2-2.2-3.9-3.4-5.5s-2.6-2.7-4.3-3.3c-1.7-0.5-3.4-0.9-5.2-1.1c-1.7-0.2-4.4-0.3-8-0.3h-15.3v45.3
		h-2.5V278c6.4-1.3,13.2-1.9,20.4-1.9c22.9,0,34.4,8.3,34.4,24.9C195.7,313.8,188,321.5,172.7,324z M143.5,322.6h15.3
		c12,0,20.7-1.8,26.2-5.4c5.5-3.6,8.2-9,8.2-16.3c0-14.9-10.6-22.3-31.9-22.3c-6.2,0-12.2,0.5-17.9,1.5V322.6z"/>
	<path class="st1" d="M218.9,320.7v47.2h48.4v2.5h-51v-93.1h51v2.6h-48.4v38.2h45.9v2.5H218.9z"/>
	<path class="st1" d="M351.8,367.7v-90.4h2.6v93.1h-4.1L292.1,280h-0.3v90.4h-2.5v-93.1h4.1l58.1,90.4H351.8z"/>
	<path class="st1" d="M377.5,369.5v-91.3c6.5-1.4,12.8-2.2,19.1-2.2c15.6,0,27.6,4,36,12c8.3,8,12.5,19.5,12.5,34.5
		c0,15.8-4.2,27.9-12.5,36.4c-8.3,8.5-20.3,12.7-36,12.7C390.1,371.7,383.8,371,377.5,369.5z M442.6,322.6
		c0-14.4-3.9-25.4-11.7-32.8c-7.8-7.4-19.2-11.2-34.2-11.2c-6,0-11.6,0.6-16.6,1.7v87.2c5,1.1,10.5,1.7,16.6,1.7
		c14.8,0,26.1-4,34-12C438.6,349.1,442.6,337.6,442.6,322.6z"/>
</g>
<rect x="13" y="12.5" class="st2" width="475" height="475"/>
</svg>
